<svg height="511pt" viewBox="0 0 511.99971 511" width="511pt" xmlns="http://www.w3.org/2000/svg"><g fill-rule="evenodd"><path d="m511.707031 330.308594c-2.210937 35.691406-31.980469 66.980468-79.011719 89.03125-45.476562 21.324218-107.898437 34.511718-176.488281 34.511718-68.585937 0-131.011719-13.1875-176.488281-34.511718-47.027344-22.050782-76.796875-53.335938-79.007812-89.023438-1.515626 11.183594-.136719 33.296875-.136719 45.648438 0 39.476562 30.109375 74.335937 78.792969 98.777344 45.566406 22.878906 108.113281 37.027343 176.839843 37.027343 68.726563 0 131.273438-14.148437 176.839844-37.027343 48.683594-24.445313 78.796875-59.300782 78.796875-98.777344.003906-.8125.429688-41.488282-.136719-45.65625zm0 0"/><path d="m209.277344 342.011719c24.382812 0 39.21875-7.578125 42.519531-11.464844-3.300781-3.886719-18.136719-11.464844-42.519531-11.464844-24.386719 0-39.222656 7.578125-42.523438 11.464844 3.300782 3.886719 18.136719 11.464844 42.523438 11.464844zm0 0"/><path d="m256.207031 423.894531c53.441407 0 225.679688-21.539062 225.679688-97.859375 0-76.320312-172.238281-97.859375-225.679688-97.859375-13.742187 0-35.34375 1.425781-59.847656 4.839844v56.703125c4.222656-.394531 8.546875-.59375 12.917969-.59375 17.527344 0 34.269531 3.234375 47.140625 9.113281 22.40625 10.230469 25.753906 24.632813 25.753906 32.308594 0 7.671875-3.347656 22.078125-25.753906 32.308594-12.871094 5.875-29.613281 9.113281-47.140625 9.113281-17.53125 0-34.273438-3.238281-47.144532-9.113281-22.40625-10.230469-25.753906-24.636719-25.753906-32.308594 0-7.675781 3.347656-22.078125 25.753906-32.308594 1.378907-.628906 2.808594-1.222656 4.269532-1.789062v-58.449219c-.023438.003906-.042969.007812-.066406.011719v-85.832031l116.660156-59.597657c5.007812-2.558593 8.164062-7.710937 8.164062-13.335937 0-5.628906-3.15625-10.78125-8.164062-13.339844l-124.824219-63.765625c-4.644531-2.375-10.1875-2.1601562-14.632813.5625-4.445312 2.722656-7.160156 7.5625-7.160156 12.777344v229.339843c-55.007812 14.457032-105.847656 39.75-105.847656 81.214844 0 76.320313 172.234375 97.859375 225.675781 97.859375zm0 0"/></g></svg>