<svg height="512pt" viewBox="0 -16 512 512" width="512pt" xmlns="http://www.w3.org/2000/svg"><path d="m422 120c-.511719 0-1.019531.003906-1.527344.011719-6.941406-33.519531-37.453125-60.011719-74.472656-60.011719-9.890625 0-19.507812 1.949219-28.472656 5.71875-20.210938-39.9375-61.0625-65.71875-106.527344-65.71875-66.167969 0-120 53.832031-120 120-49.914062 0-91 40.425781-91 90 0 49.519531 41.03125 90 91 90h331c49.625 0 90-40.375 90-90s-40.375-90-90-90zm0 150h-331c-33.636719 0-61-26.914062-61-60 0-38.078125 35.769531-66.398438 73.070312-58.785156 11.628907 2.378906 20.566407-9.167969 19.214844-19.140625-.574218-4.242188-1.285156-8.433594-1.285156-12.074219 0-49.625 40.375-90 90-90 38.570312 0 72.730469 24.859375 84.996094 61.855469 1.523437 4.59375 5.171875 8.171875 9.792968 9.609375 4.625 1.433594 9.65625.546875 13.511719-2.378906 7.835938-5.945313 17.066407-9.085938 26.699219-9.085938 24.683594 0 45.574219 20.195312 45.992188 44.265625-1.371094 11.296875 8.445312 18.894531 17.9375 16.949219 3.953124-.804688 8.011718-1.214844 12.070312-1.214844 33.085938 0 60 26.914062 60 60s-26.914062 60-60 60zm0 0"/><path d="m256 450c8.285156 0 15-6.714844 15-15v-90c0-8.285156-6.714844-15-15-15s-15 6.714844-15 15v90c0 8.285156 6.714844 15 15 15zm0 0"/><path d="m452 435v-90c0-8.285156-6.714844-15-15-15s-15 6.714844-15 15v90c0 8.285156 6.714844 15 15 15s15-6.714844 15-15zm0 0"/><path d="m76 450c8.285156 0 15-6.714844 15-15v-90c0-8.285156-6.714844-15-15-15s-15 6.714844-15 15v90c0 8.285156 6.714844 15 15 15zm0 0"/><path d="m151 465c0 8.285156 6.714844 15 15 15s15-6.714844 15-15v-30c0-8.285156-6.714844-15-15-15s-15 6.714844-15 15zm0 0"/><path d="m181 375c0 8.285156-6.714844 15-15 15s-15-6.714844-15-15 6.714844-15 15-15 15 6.714844 15 15zm0 0"/><path d="m346 420c8.285156 0 15-6.714844 15-15v-30c0-8.285156-6.714844-15-15-15s-15 6.714844-15 15v30c0 8.285156 6.714844 15 15 15zm0 0"/><path d="m361 465c0 8.285156-6.714844 15-15 15s-15-6.714844-15-15 6.714844-15 15-15 15 6.714844 15 15zm0 0"/></svg>